<svg width="33" height="59" viewBox="0 0 33 59" fill="none" xmlns="http://www.w3.org/2000/svg">
<rect x="3" width="26" height="2" fill="white"/>
<path d="M6.93537 48.355V56H5.68137V52.656H2.08437V56H0.830371V48.355H2.08437V51.633H5.68137V48.355H6.93537ZM11.2152 56.099C10.6432 56.099 10.1262 55.9707 9.66423 55.714C9.20223 55.45 8.83923 55.0833 8.57523 54.614C8.31123 54.1373 8.17923 53.5873 8.17923 52.964C8.17923 52.348 8.3149 51.8017 8.58623 51.325C8.85756 50.8483 9.2279 50.4817 9.69723 50.225C10.1666 49.9683 10.6909 49.84 11.2702 49.84C11.8496 49.84 12.3739 49.9683 12.8432 50.225C13.3126 50.4817 13.6829 50.8483 13.9542 51.325C14.2256 51.8017 14.3612 52.348 14.3612 52.964C14.3612 53.58 14.2219 54.1263 13.9432 54.603C13.6646 55.0797 13.2832 55.45 12.7992 55.714C12.3226 55.9707 11.7946 56.099 11.2152 56.099ZM11.2152 55.01C11.5379 55.01 11.8386 54.933 12.1172 54.779C12.4032 54.625 12.6342 54.394 12.8102 54.086C12.9862 53.778 13.0742 53.404 13.0742 52.964C13.0742 52.524 12.9899 52.1537 12.8212 51.853C12.6526 51.545 12.4289 51.314 12.1502 51.16C11.8716 51.006 11.5709 50.929 11.2482 50.929C10.9256 50.929 10.6249 51.006 10.3462 51.16C10.0749 51.314 9.85856 51.545 9.69723 51.853C9.5359 52.1537 9.45523 52.524 9.45523 52.964C9.45523 53.6167 9.62023 54.1227 9.95023 54.482C10.2876 54.834 10.7092 55.01 11.2152 55.01ZM22.9379 49.84C23.4145 49.84 23.8399 49.939 24.2139 50.137C24.5952 50.335 24.8922 50.6283 25.1049 51.017C25.3249 51.4057 25.4349 51.875 25.4349 52.425V56H24.1919V52.612C24.1919 52.0693 24.0562 51.655 23.7849 51.369C23.5135 51.0757 23.1432 50.929 22.6739 50.929C22.2045 50.929 21.8305 51.0757 21.5519 51.369C21.2805 51.655 21.1449 52.0693 21.1449 52.612V56H19.9019V52.612C19.9019 52.0693 19.7662 51.655 19.4949 51.369C19.2235 51.0757 18.8532 50.929 18.3839 50.929C17.9145 50.929 17.5405 51.0757 17.2619 51.369C16.9905 51.655 16.8549 52.0693 16.8549 52.612V56H15.6009V49.939H16.8549V50.632C17.0602 50.3827 17.3205 50.1883 17.6359 50.049C17.9512 49.9097 18.2885 49.84 18.6479 49.84C19.1319 49.84 19.5645 49.9427 19.9459 50.148C20.3272 50.3533 20.6205 50.6503 20.8259 51.039C21.0092 50.6723 21.2952 50.3827 21.6839 50.17C22.0725 49.95 22.4905 49.84 22.9379 49.84ZM32.5856 52.821C32.5856 53.0483 32.5709 53.2537 32.5416 53.437H27.9106C27.9472 53.921 28.1269 54.3097 28.4496 54.603C28.7722 54.8963 29.1682 55.043 29.6376 55.043C30.3122 55.043 30.7889 54.7607 31.0676 54.196H32.4206C32.2372 54.7533 31.9036 55.2117 31.4196 55.571C30.9429 55.923 30.3489 56.099 29.6376 56.099C29.0582 56.099 28.5376 55.9707 28.0756 55.714C27.6209 55.45 27.2616 55.0833 26.9976 54.614C26.7409 54.1373 26.6126 53.5873 26.6126 52.964C26.6126 52.3407 26.7372 51.7943 26.9866 51.325C27.2432 50.8483 27.5989 50.4817 28.0536 50.225C28.5156 49.9683 29.0436 49.84 29.6376 49.84C30.2096 49.84 30.7192 49.9647 31.1666 50.214C31.6139 50.4633 31.9622 50.8153 32.2116 51.27C32.4609 51.7173 32.5856 52.2343 32.5856 52.821ZM31.2766 52.425C31.2692 51.963 31.1042 51.5927 30.7816 51.314C30.4589 51.0353 30.0592 50.896 29.5826 50.896C29.1499 50.896 28.7796 51.0353 28.4716 51.314C28.1636 51.5853 27.9802 51.9557 27.9216 52.425H31.2766Z" fill="#13747D"/>
<path fill-rule="evenodd" clip-rule="evenodd" d="M14.8 17.0251C15.5111 16.4917 16.4889 16.4917 17.2 17.0251L24.2 22.2751C24.7036 22.6528 25 23.2455 25 23.8751V33.3751C25 34.4796 24.1046 35.3751 23 35.3751H9C7.89543 35.3751 7 34.4796 7 33.3751V23.8751C7 23.2455 7.29639 22.6528 7.8 22.2751L14.8 17.0251Z" fill="#13747D"/>
</svg>
