<svg width="20" height="20" viewBox="0 0 20 20" fill="none" xmlns="http://www.w3.org/2000/svg">
<path fill-rule="evenodd" clip-rule="evenodd" d="M0.833344 8.75001C0.833344 4.37777 4.37777 0.833344 8.75001 0.833344C13.1222 0.833344 16.6667 4.37777 16.6667 8.75001C16.6667 10.636 16.0072 12.3679 14.9063 13.7278L17.9672 16.7887C18.2927 17.1141 18.2927 17.6418 17.9672 17.9672C17.6418 18.2927 17.1141 18.2927 16.7887 17.9672L13.7278 14.9063C12.3679 16.0072 10.636 16.6667 8.75001 16.6667C4.37777 16.6667 0.833344 13.1222 0.833344 8.75001ZM8.75001 2.50001C5.29825 2.50001 2.50001 5.29825 2.50001 8.75001C2.50001 12.2018 5.29825 15 8.75001 15C12.2018 15 15 12.2018 15 8.75001C15 5.29825 12.2018 2.50001 8.75001 2.50001Z" fill="#13747D"/>
</svg>
